<?xml version="1.0" encoding="UTF-8"?>
<svg id="Ebene_1" data-name="Ebene 1" xmlns="http://www.w3.org/2000/svg" viewBox="0 0 70 45">
  <defs>
    <style>
      .cls-1 {
        fill: none;
        stroke: #fff;
      }

      .cls-2 {
        fill: #fff;
        stroke-width: 0px;
      }
    </style>
  </defs>
  <g id="Page-1">
    <g id="twitter03-2">
      <g id="Group-Copy">
        <g id="twitter">
          <path id="BG" class="cls-1" d="M64.99.5H5.01c-1.25,0-2.37.5-3.19,1.32-.82.82-1.32,1.94-1.32,3.19v34.98c0,1.25.5,2.38,1.32,3.19.82.82,1.94,1.32,3.19,1.32h59.99c1.25,0,2.37-.5,3.19-1.32.82-.82,1.32-1.94,1.32-3.19V5.01c0-1.25-.5-2.38-1.32-3.19-.82-.82-1.94-1.32-3.19-1.32Z"/>
        </g>
      </g>
    </g>
  </g>
  <g>
    <path class="cls-2" d="M28.01,12.49c0,1.54-.98,2.8-2.8,2.8-1.68,0-2.8-1.26-2.8-2.66,0-1.54,1.12-2.94,2.8-2.94s2.8,1.26,2.8,2.8Z"/>
    <rect class="cls-2" x="22.41" y="16.68" width="5.6" height="18.18"/>
    <path class="cls-2" d="M41.43,16.96c-2.94,0-4.62,1.68-5.32,2.8h-.14l-.28-2.38h-5.04c0,1.54.14,3.36.14,5.46v12.03h5.6v-9.93c0-.56,0-.98.14-1.4.42-.98,1.12-2.24,2.66-2.24,1.96,0,2.8,1.68,2.8,3.92v9.65h5.6v-10.35c0-5.18-2.66-7.55-6.15-7.55Z"/>
  </g>
</svg>