<?xml version="1.0" encoding="UTF-8"?>
<svg id="Ebene_1" data-name="Ebene 1" xmlns="http://www.w3.org/2000/svg" viewBox="0 0 70 45">
  <defs>
    <style>
      .cls-1 {
        fill: none;
        stroke: #fff;
      }

      .cls-2 {
        fill: #fff;
        stroke-width: 0px;
      }
    </style>
  </defs>
  <g id="Page-1">
    <g id="twitter03-2">
      <g id="Group-Copy">
        <g id="twitter">
          <path id="BG" class="cls-1" d="M64.99.5H5.01c-1.25,0-2.37.5-3.19,1.32-.82.82-1.32,1.94-1.32,3.19v34.98c0,1.25.5,2.38,1.32,3.19.82.82,1.94,1.32,3.19,1.32h59.99c1.25,0,2.37-.5,3.19-1.32.82-.82,1.32-1.94,1.32-3.19V5.01c0-1.25-.5-2.38-1.32-3.19-.82-.82-1.94-1.32-3.19-1.32Z"/>
        </g>
      </g>
    </g>
  </g>
  <g>
    <path class="cls-2" d="M45.33,32.33l-8.08-11.74-.91-1.33-5.78-8.4-.48-.7h-7.1l1.73,2.52,7.69,11.17.91,1.33,6.18,8.97.48.7h7.1l-1.73-2.52ZM40.8,33.24l-6.42-9.32-.91-1.33-7.45-10.82h3.2l6.02,8.75.91,1.33,7.84,11.39h-3.2Z"/>
    <polygon class="cls-2" points="33.47 22.59 34.38 23.91 33.3 25.17 24.99 34.84 22.94 34.84 32.39 23.85 33.47 22.59"/>
    <polygon class="cls-2" points="46.21 10.16 37.25 20.58 36.16 21.84 35.25 20.52 36.33 19.26 42.4 12.19 44.16 10.16 46.21 10.16"/>
  </g>
</svg>